<svg width="21" height="21" viewBox="0 0 21 21" fill="none" xmlns="http://www.w3.org/2000/svg">
<mask id="mask0_5149_45" style="mask-type:alpha" maskUnits="userSpaceOnUse" x="0" y="0" width="21" height="21">
<rect x="0.266602" y="0.5" width="20" height="20" fill="#D9D9D9"/>
</mask>
<g mask="url(#mask0_5149_45)">
<path d="M3.85603 18.4166C3.44043 18.4166 3.08546 18.2695 2.79113 17.9751C2.49678 17.6808 2.34961 17.3258 2.34961 16.9102V4.08975C2.34961 3.67415 2.49678 3.31919 2.79113 3.02486C3.08546 2.73051 3.44043 2.58333 3.85603 2.58333H10.755L9.50505 3.83331H3.85603C3.78123 3.83331 3.7198 3.85736 3.67171 3.90544C3.62363 3.95352 3.59959 4.01496 3.59959 4.08975V16.9102C3.59959 16.985 3.62363 17.0464 3.67171 17.0945C3.7198 17.1426 3.78123 17.1666 3.85603 17.1666H12.5098C12.5846 17.1666 12.646 17.1426 12.6941 17.0945C12.7422 17.0464 12.7663 16.985 12.7663 16.9102V14.875H14.0162V16.9102C14.0162 17.3258 13.8691 17.6808 13.5747 17.9751C13.2804 18.2695 12.9254 18.4166 12.5098 18.4166H3.85603ZM5.47461 15.2916V14.0417H10.8912V15.2916H5.47461ZM5.47461 12.8878V11.6378H9.22457V12.8878H5.47461ZM12.5579 12.5753L9.52107 9.53844H7.14128V5.78846H9.52107L12.5579 2.75163V12.5753ZM14.2246 10.3221V5.00481C14.6872 5.29113 15.0459 5.67227 15.3007 6.14823C15.5555 6.62419 15.6829 7.12926 15.6829 7.66344C15.6829 8.19762 15.5542 8.7027 15.2967 9.17867C15.0392 9.65463 14.6818 10.0358 14.2246 10.3221ZM14.2246 13.7532V12.4359C15.138 12.0566 15.8872 11.4319 16.4722 10.5617C17.0571 9.6915 17.3496 8.72541 17.3496 7.66344C17.3496 6.60148 17.0571 5.63541 16.4722 4.76521C15.8872 3.89502 15.138 3.27028 14.2246 2.891V1.57373C15.4874 1.97544 16.5322 2.73666 17.3592 3.85738C18.1861 4.9781 18.5995 6.24679 18.5995 7.66344C18.5995 9.08011 18.1861 10.3488 17.3592 11.4695C16.5322 12.5902 15.4874 13.3515 14.2246 13.7532Z" fill="white"/>
</g>
</svg>
