<svg width="17" height="17" viewBox="0 0 17 17" fill="none" xmlns="http://www.w3.org/2000/svg">
<path fill-rule="evenodd" clip-rule="evenodd" d="M8.2666 16.5C12.6849 16.5 16.2666 12.9183 16.2666 8.5C16.2666 4.08172 12.6849 0.5 8.2666 0.5C3.84832 0.5 0.266602 4.08172 0.266602 8.5C0.266602 12.9183 3.84832 16.5 8.2666 16.5ZM8.2666 1.5C7.60976 1.5 6.85984 2.09025 6.24482 3.40814C6.02733 3.87419 5.83832 4.40978 5.68597 5H10.8472C10.6949 4.40978 10.5059 3.87419 10.2884 3.40814C9.67337 2.09025 8.92345 1.5 8.2666 1.5ZM5.33864 2.98526C5.06224 3.57753 4.83159 4.25696 4.65591 5H2.20308C3.03955 3.55399 4.37842 2.43497 5.98102 1.88163C5.73957 2.21222 5.52488 2.58617 5.33864 2.98526ZM4.45925 6H1.72623C1.42928 6.7764 1.2666 7.6192 1.2666 8.5C1.2666 9.3808 1.42928 10.2236 1.72623 11H4.45925C4.33383 10.2117 4.2666 9.37066 4.2666 8.5C4.2666 7.62934 4.33383 6.78832 4.45925 6ZM4.65591 12H2.20308C3.03955 13.446 4.37842 14.565 5.98102 15.1184C5.73957 14.7878 5.52488 14.4138 5.33864 14.0147C5.06224 13.4225 4.83159 12.743 4.65591 12ZM5.68597 12H10.8472C10.6949 12.5902 10.5059 13.1258 10.2884 13.5919C9.67337 14.9097 8.92345 15.5 8.2666 15.5C7.60976 15.5 6.85984 14.9097 6.24482 13.5919C6.02733 13.1258 5.83832 12.5902 5.68597 12ZM11.0604 11H5.47277C5.34005 10.2253 5.2666 9.38331 5.2666 8.5C5.2666 7.61669 5.34005 6.77472 5.47277 6H11.0604C11.1932 6.77472 11.2666 7.61669 11.2666 8.5C11.2666 9.38331 11.1932 10.2253 11.0604 11ZM11.8773 12C11.7016 12.743 11.471 13.4225 11.1946 14.0147C11.0083 14.4138 10.7936 14.7878 10.5522 15.1184C12.1548 14.565 13.4937 13.446 14.3301 12H11.8773ZM14.807 11H12.074C12.1994 10.2117 12.2666 9.37066 12.2666 8.5C12.2666 7.62934 12.1994 6.78832 12.074 6H14.807C15.1039 6.7764 15.2666 7.6192 15.2666 8.5C15.2666 9.3808 15.1039 10.2236 14.807 11ZM10.5522 1.88163C12.1548 2.43497 13.4937 3.55399 14.3301 5H11.8773C11.7016 4.25696 11.471 3.57753 11.1946 2.98526C11.0083 2.58617 10.7936 2.21222 10.5522 1.88163Z" fill="#EBEBEB"/>
</svg>
